<mxfile host="app.diagrams.net" modified="2023-11-13T20:20:41.022Z" agent="Mozilla/5.0 (Windows NT 10.0; Win64; x64) AppleWebKit/537.36 (KHTML, like Gecko) Chrome/119.0.0.0 Safari/537.36" etag="ICPZEeyH057TOijp4EO-" version="22.1.0" type="onedrive">
  <diagram name="Page-1" id="mNvNjHyqJo1Iwtuf4qB0">
    <mxGraphModel grid="1" page="1" gridSize="10" guides="1" tooltips="1" connect="1" arrows="1" fold="1" pageScale="1" pageWidth="827" pageHeight="1169" math="0" shadow="0">
      <root>
        <mxCell id="0" />
        <mxCell id="1" parent="0" />
        <mxCell id="A1dd0ZfWctbC5Qc0ZaDb-2" value="" style="rounded=0;whiteSpace=wrap;html=1;fillColor=none;" vertex="1" parent="1">
          <mxGeometry x="20" y="190" width="385" height="60" as="geometry" />
        </mxCell>
        <mxCell id="A1dd0ZfWctbC5Qc0ZaDb-3" value="255" style="rounded=0;whiteSpace=wrap;html=1;" vertex="1" parent="1">
          <mxGeometry x="15" y="190" width="30" height="60" as="geometry" />
        </mxCell>
        <mxCell id="A1dd0ZfWctbC5Qc0ZaDb-5" value="..." style="rounded=0;whiteSpace=wrap;html=1;" vertex="1" parent="1">
          <mxGeometry x="45" y="190" width="30" height="60" as="geometry" />
        </mxCell>
        <mxCell id="A1dd0ZfWctbC5Qc0ZaDb-6" value="255" style="rounded=0;whiteSpace=wrap;html=1;" vertex="1" parent="1">
          <mxGeometry x="75" y="190" width="30" height="60" as="geometry" />
        </mxCell>
        <mxCell id="A1dd0ZfWctbC5Qc0ZaDb-7" value="62&lt;br&gt;(&quot;+&quot;)" style="rounded=0;whiteSpace=wrap;html=1;" vertex="1" parent="1">
          <mxGeometry x="105" y="190" width="30" height="60" as="geometry" />
        </mxCell>
        <mxCell id="A1dd0ZfWctbC5Qc0ZaDb-8" value="255" style="rounded=0;whiteSpace=wrap;html=1;" vertex="1" parent="1">
          <mxGeometry x="135" y="190" width="30" height="60" as="geometry" />
        </mxCell>
        <mxCell id="A1dd0ZfWctbC5Qc0ZaDb-9" value="255" style="rounded=0;whiteSpace=wrap;html=1;" vertex="1" parent="1">
          <mxGeometry x="165" y="190" width="30" height="60" as="geometry" />
        </mxCell>
        <mxCell id="A1dd0ZfWctbC5Qc0ZaDb-10" value="63&lt;br&gt;(&quot;/&quot;)" style="rounded=0;whiteSpace=wrap;html=1;" vertex="1" parent="1">
          <mxGeometry x="225" y="190" width="30" height="60" as="geometry" />
        </mxCell>
        <mxCell id="A1dd0ZfWctbC5Qc0ZaDb-11" value="52&lt;br&gt;(&quot;0&quot;)" style="rounded=0;whiteSpace=wrap;html=1;" vertex="1" parent="1">
          <mxGeometry x="255" y="190" width="30" height="60" as="geometry" />
        </mxCell>
        <mxCell id="A1dd0ZfWctbC5Qc0ZaDb-12" value="53&lt;br&gt;(&quot;1&quot;)" style="rounded=0;whiteSpace=wrap;html=1;" vertex="1" parent="1">
          <mxGeometry x="285" y="190" width="30" height="60" as="geometry" />
        </mxCell>
        <mxCell id="A1dd0ZfWctbC5Qc0ZaDb-13" value="..." style="rounded=0;whiteSpace=wrap;html=1;" vertex="1" parent="1">
          <mxGeometry x="315" y="190" width="30" height="60" as="geometry" />
        </mxCell>
        <mxCell id="A1dd0ZfWctbC5Qc0ZaDb-14" value="62&lt;br&gt;(&quot;9&quot;)" style="rounded=0;whiteSpace=wrap;html=1;" vertex="1" parent="1">
          <mxGeometry x="345" y="190" width="30" height="60" as="geometry" />
        </mxCell>
        <mxCell id="A1dd0ZfWctbC5Qc0ZaDb-15" value="255" style="rounded=0;whiteSpace=wrap;html=1;" vertex="1" parent="1">
          <mxGeometry x="375" y="190" width="30" height="60" as="geometry" />
        </mxCell>
        <mxCell id="A1dd0ZfWctbC5Qc0ZaDb-17" value="0" style="text;html=1;strokeColor=none;fillColor=none;align=center;verticalAlign=middle;whiteSpace=wrap;rounded=0;" vertex="1" parent="1">
          <mxGeometry y="160" width="60" height="30" as="geometry" />
        </mxCell>
        <mxCell id="A1dd0ZfWctbC5Qc0ZaDb-20" value="..." style="rounded=0;whiteSpace=wrap;html=1;" vertex="1" parent="1">
          <mxGeometry x="405" y="190" width="30" height="60" as="geometry" />
        </mxCell>
        <mxCell id="A1dd0ZfWctbC5Qc0ZaDb-22" value="255" style="rounded=0;whiteSpace=wrap;html=1;" vertex="1" parent="1">
          <mxGeometry x="435" y="190" width="30" height="60" as="geometry" />
        </mxCell>
        <mxCell id="A1dd0ZfWctbC5Qc0ZaDb-23" value="0&lt;br&gt;(&quot;A&quot;)" style="rounded=0;whiteSpace=wrap;html=1;" vertex="1" parent="1">
          <mxGeometry x="465" y="190" width="30" height="60" as="geometry" />
        </mxCell>
        <mxCell id="A1dd0ZfWctbC5Qc0ZaDb-24" value="1&lt;br&gt;(&quot;B&quot;)" style="rounded=0;whiteSpace=wrap;html=1;" vertex="1" parent="1">
          <mxGeometry x="495" y="190" width="30" height="60" as="geometry" />
        </mxCell>
        <mxCell id="A1dd0ZfWctbC5Qc0ZaDb-25" value="..." style="rounded=0;whiteSpace=wrap;html=1;" vertex="1" parent="1">
          <mxGeometry x="525" y="190" width="30" height="60" as="geometry" />
        </mxCell>
        <mxCell id="A1dd0ZfWctbC5Qc0ZaDb-26" value="25&lt;br&gt;(&quot;Z&quot;)" style="rounded=0;whiteSpace=wrap;html=1;" vertex="1" parent="1">
          <mxGeometry x="555" y="190" width="30" height="60" as="geometry" />
        </mxCell>
        <mxCell id="A1dd0ZfWctbC5Qc0ZaDb-27" value="255" style="rounded=0;whiteSpace=wrap;html=1;" vertex="1" parent="1">
          <mxGeometry x="585" y="190" width="30" height="60" as="geometry" />
        </mxCell>
        <mxCell id="A1dd0ZfWctbC5Qc0ZaDb-28" value="..." style="rounded=0;whiteSpace=wrap;html=1;" vertex="1" parent="1">
          <mxGeometry x="615" y="190" width="30" height="60" as="geometry" />
        </mxCell>
        <mxCell id="A1dd0ZfWctbC5Qc0ZaDb-29" value="255" style="rounded=0;whiteSpace=wrap;html=1;" vertex="1" parent="1">
          <mxGeometry x="645" y="190" width="30" height="60" as="geometry" />
        </mxCell>
        <mxCell id="A1dd0ZfWctbC5Qc0ZaDb-30" value="26&lt;br&gt;(&quot;a&quot;)" style="rounded=0;whiteSpace=wrap;html=1;" vertex="1" parent="1">
          <mxGeometry x="675" y="190" width="30" height="60" as="geometry" />
        </mxCell>
        <mxCell id="A1dd0ZfWctbC5Qc0ZaDb-31" value="27&lt;br&gt;(&quot;b&quot;)" style="rounded=0;whiteSpace=wrap;html=1;" vertex="1" parent="1">
          <mxGeometry x="705" y="190" width="30" height="60" as="geometry" />
        </mxCell>
        <mxCell id="A1dd0ZfWctbC5Qc0ZaDb-32" value="..." style="rounded=0;whiteSpace=wrap;html=1;" vertex="1" parent="1">
          <mxGeometry x="735" y="190" width="30" height="60" as="geometry" />
        </mxCell>
        <mxCell id="A1dd0ZfWctbC5Qc0ZaDb-33" value="51&lt;br&gt;(&quot;z&quot;)" style="rounded=0;whiteSpace=wrap;html=1;" vertex="1" parent="1">
          <mxGeometry x="765" y="190" width="30" height="60" as="geometry" />
        </mxCell>
        <mxCell id="A1dd0ZfWctbC5Qc0ZaDb-35" value="43" style="text;html=1;strokeColor=none;fillColor=none;align=center;verticalAlign=middle;whiteSpace=wrap;rounded=0;" vertex="1" parent="1">
          <mxGeometry x="90" y="160" width="60" height="30" as="geometry" />
        </mxCell>
        <mxCell id="A1dd0ZfWctbC5Qc0ZaDb-37" value="47" style="text;html=1;strokeColor=none;fillColor=none;align=center;verticalAlign=middle;whiteSpace=wrap;rounded=0;" vertex="1" parent="1">
          <mxGeometry x="210" y="160" width="60" height="30" as="geometry" />
        </mxCell>
        <mxCell id="A1dd0ZfWctbC5Qc0ZaDb-38" value="57" style="text;html=1;strokeColor=none;fillColor=none;align=center;verticalAlign=middle;whiteSpace=wrap;rounded=0;" vertex="1" parent="1">
          <mxGeometry x="330" y="160" width="60" height="30" as="geometry" />
        </mxCell>
        <mxCell id="A1dd0ZfWctbC5Qc0ZaDb-39" value="255" style="rounded=0;whiteSpace=wrap;html=1;" vertex="1" parent="1">
          <mxGeometry x="195" y="190" width="30" height="60" as="geometry" />
        </mxCell>
        <mxCell id="A1dd0ZfWctbC5Qc0ZaDb-40" value="65" style="text;html=1;strokeColor=none;fillColor=none;align=center;verticalAlign=middle;whiteSpace=wrap;rounded=0;" vertex="1" parent="1">
          <mxGeometry x="450" y="160" width="60" height="30" as="geometry" />
        </mxCell>
        <mxCell id="A1dd0ZfWctbC5Qc0ZaDb-42" value="90" style="text;html=1;strokeColor=none;fillColor=none;align=center;verticalAlign=middle;whiteSpace=wrap;rounded=0;" vertex="1" parent="1">
          <mxGeometry x="540" y="160" width="60" height="30" as="geometry" />
        </mxCell>
        <mxCell id="A1dd0ZfWctbC5Qc0ZaDb-43" value="97" style="text;html=1;strokeColor=none;fillColor=none;align=center;verticalAlign=middle;whiteSpace=wrap;rounded=0;" vertex="1" parent="1">
          <mxGeometry x="660" y="160" width="60" height="30" as="geometry" />
        </mxCell>
        <mxCell id="A1dd0ZfWctbC5Qc0ZaDb-44" value="122" style="text;html=1;strokeColor=none;fillColor=none;align=center;verticalAlign=middle;whiteSpace=wrap;rounded=0;" vertex="1" parent="1">
          <mxGeometry x="750" y="160" width="60" height="30" as="geometry" />
        </mxCell>
        <mxCell id="A1dd0ZfWctbC5Qc0ZaDb-46" value="255" style="rounded=0;whiteSpace=wrap;html=1;" vertex="1" parent="1">
          <mxGeometry x="795" y="190" width="30" height="60" as="geometry" />
        </mxCell>
        <mxCell id="A1dd0ZfWctbC5Qc0ZaDb-48" value="..." style="rounded=0;whiteSpace=wrap;html=1;" vertex="1" parent="1">
          <mxGeometry x="825" y="190" width="30" height="60" as="geometry" />
        </mxCell>
        <mxCell id="A1dd0ZfWctbC5Qc0ZaDb-50" value="255" style="rounded=0;whiteSpace=wrap;html=1;" vertex="1" parent="1">
          <mxGeometry x="855" y="190" width="30" height="60" as="geometry" />
        </mxCell>
        <mxCell id="A1dd0ZfWctbC5Qc0ZaDb-51" value="127" style="text;html=1;strokeColor=none;fillColor=none;align=center;verticalAlign=middle;whiteSpace=wrap;rounded=0;" vertex="1" parent="1">
          <mxGeometry x="840" y="160" width="60" height="30" as="geometry" />
        </mxCell>
      </root>
    </mxGraphModel>
  </diagram>
</mxfile>
